PathFileType	4	(X/Y/Z)	C:\Github\FootballMatch-and-Movement-Analysis\output\test Exam_2026-03-06_135002_tvc2_Sports2D\test Exam_2026-03-06_135002_tvc2_Sports2D_m_person00.trc
DataRate	CameraRate	NumFrames	NumMarkers	Units	OrigDataRate	OrigDataStartFrame	OrigNumFrames
30.0	30.0	7	22	m	30.0	451	516
Frame#	Time	Hip			RHip			RKnee			RAnkle			RBigToe			RSmallToe			RHeel			LHip			LKnee			LAnkle			LBigToe			LSmallToe			LHeel			Neck			Head			Nose			RShoulder			RElbow			RWrist			LShoulder			LElbow			LWrist			
		X1	Y1	Z1	X2	Y2	Z2	X3	Y3	Z3	X4	Y4	Z4	X5	Y5	Z5	X6	Y6	Z6	X7	Y7	Z7	X8	Y8	Z8	X9	Y9	Z9	X10	Y10	Z10	X11	Y11	Z11	X12	Y12	Z12	X13	Y13	Z13	X14	Y14	Z14	X15	Y15	Z15	X16	Y16	Z16	X17	Y17	Z17	X18	Y18	Z18	X19	Y19	Z19	X20	Y20	Z20	X21	Y21	Z21	X22	Y22	Z22
451	15.06252427184466	0.7327118831483969	0.8062767505110636	0.0301	0.635781681847525	0.7948734843637905	0.0301	0.6729548810800952	0.45443804637354573	0.129	0.7140510269109196	0.1365441543350849	0.023	0.7001703276156933	0.03734049546790905	0.2179	0.663073238372367	0.04246586266519931	0.1804	0.7397452444742884	0.09237006885893066	-0.0119	0.8293982676974413	0.8177844989676989	0.0301	0.8391422158551508	0.5538519924795771	0.129	0.8405911164260665	0.15014434781749117	0.023	0.8449015033647077	0.05661816955817993	0.2179	0.8917191998092575	0.05400588854692396	0.1804	0.8322912147912271	0.08401905414673783	-0.0119	0.8068444627940351	1.272673335676878	0.0008	0.8504656687782343	1.5146564721681517	0.0655	0.8304845742262273	1.3698476119576202	0.1076	0.6142478316478438	1.2291502976335582	-0.01275	0.3934847994994331	1.1126473962557715	0.0702	0.5289523830575703	0.9142216738191516	0.1076	0.9649181649339967	1.1743543443735065	-0.01275	1.0790032772355393	1.0325710145907687	0.0702	0.9602537730509023	0.9150844855580452	0.1076
452	15.095922330097087	0.735284821269525	0.8015415362429449	0.0301	0.637966485449264	0.7901811991762516	0.0301	0.6711934837923516	0.45383624040301696	0.129	0.714495826548398	0.13663536051627753	0.023	0.7016086532986454	0.037023253727477876	0.2179	0.6650266917698467	0.043766798860104116	0.1804	0.7419982553742706	0.09219795115476011	-0.0119	0.8313230405051257	0.8130515102332794	0.0301	0.8438633888361221	0.5536475945998688	0.129	0.8456852495769229	0.1528326896078385	0.023	0.8511386348888916	0.061803852215921336	0.2179	0.8986314279839007	0.059591457320474744	0.1804	0.8358537537016579	0.08596734081789872	-0.0119	0.8027308824135106	1.2596783260185163	0.0008	0.8418962412830434	1.5068147019685414	0.0655	0.8192432174391658	1.3575256330235566	0.1076	0.611000794227112	1.2191693042282026	-0.01275	0.39182299123698144	1.101415423696582	0.0702	0.5305708245939885	0.9046365381594169	0.1076	0.9626313374772794	1.1645848266386776	-0.01275	1.0848689145107144	1.0273975907080934	0.0702	0.9620856507099238	0.9061019005309627	0.1076
453	15.129320388349514	0.7365938862230091	0.7958081023580311	0.0301	0.6386931305033642	0.7842785277379343	0.0301	0.6709926260826383	0.4500674451539933	0.129	0.7171569495919384	0.13588498287301776	0.023	0.7035137447044146	0.03523712614807892	0.2179	0.6670426602874885	0.04152108317920696	0.1804	0.7470077331968049	0.09359685922987086	-0.0119	0.8337318997161302	0.8093639593995179	0.0301	0.8465740773016731	0.5548814825398831	0.129	0.8515968188904579	0.1564590778954134	0.023	0.8559616858572401	0.06923620196515852	0.2179	0.903394660132081	0.06842621834573974	0.1804	0.8413717538561006	0.0893998136070523	-0.0119	0.7984288978082306	1.2464854220243455	0.0008	0.8326746619004514	1.4957952091113018	0.0655	0.8092295078678273	1.345043812563936	0.1076	0.6074566817714512	1.2068008442127742	-0.01275	0.390041117979301	1.0882591835769588	0.0702	0.5314990501245459	0.8965204448764299	0.1076	0.9581616328235891	1.1568879083550596	-0.01275	1.0898598088748646	1.0241655282716693	0.0702	0.963079429598982	0.8988145388107167	0.1076
454	15.162718446601941	0.7371733371088617	0.7910167657113973	0.0301	0.6391551055309476	0.7791012407042115	0.0301	0.6721267738313916	0.4458101722333607	0.129	0.7212386446285475	0.13547460990917728	0.023	0.7046398077754578	0.03201941368504183	0.2179	0.6683796202920266	0.03696639367023897	0.1804	0.7529911191668982	0.09435002540148371	-0.0119	0.8361287744432221	0.8067353171237843	0.0301	0.8473230296769122	0.557423520938318	0.129	0.8574668209634663	0.15887453342538743	0.023	0.8587981203205315	0.07643218264931201	0.2179	0.9053937481404114	0.07451844223939694	0.1804	0.847758289374737	0.09217331608738544	-0.0119	0.7937079595265322	1.2341594568408207	0.0008	0.823492422044749	1.483968656583343	0.0655	0.800589062196357	1.3342848643032001	0.1076	0.6026963120013735	1.1948710886590481	-0.01275	0.38811188849295575	1.0749537717303017	0.0702	0.5324820825504812	0.8886743650447917	0.1076	0.9530793811090313	1.1510043509090258	-0.01275	1.093921881660304	1.0220384296725702	0.0702	0.9631353088886059	0.8929895250197836	0.1076
455	15.19611650485437	0.7383575846719884	0.7877914182628135	0.0301	0.6405563451634434	0.7764461199924926	0.0301	0.6729279007394563	0.4437755755192636	0.129	0.7236273548972669	0.13571930269197593	0.023	0.7049583706484016	0.029705683099253064	0.2179	0.6690872411241086	0.03364474584980453	0.1804	0.7540023252452184	0.0932156907351246	-0.0119	0.8385034379667893	0.8048126695700227	0.0301	0.8472962873883079	0.5597337157375645	0.129	0.8611353514841706	0.15957438629829743	0.023	0.8586056936198796	0.07993221055157798	0.2179	0.9053549534637665	0.0733796518643194	0.1804	0.8525100432052799	0.09364283637216539	-0.0119	0.7887898872354474	1.2239268132133792	0.0008	0.8148782342085095	1.4753497746504134	0.0655	0.7926659226589429	1.325769319804233	0.1076	0.5979065153436556	1.1862808899065	-0.01275	0.3860940391285599	1.0639651116246007	0.0702	0.535122506990246	0.8805815222792095	0.1076	0.9496352598284599	1.1458561822453734	-0.01275	1.0979349085055925	1.0194170357395276	0.0702	0.962350143564645	0.8861163514250814	0.1076
456	15.229514563106797	0.7398876647919991	0.7851770150340627	0.0301	0.641969095921691	0.7745378601862604	0.0301	0.6720389209459939	0.44223289378042746	0.129	0.7234005426121581	0.13625826985620354	0.023	0.7044674622358691	0.030038700432827713	0.2179	0.6694442173481036	0.033285264330753524	0.1804	0.7510800615958478	0.09265761345091877	-0.0119	0.8405064318606155	0.8031048834798232	0.0301	0.847025552356288	0.5610429797788062	0.129	0.8622652755620477	0.15961410819230865	0.023	0.8562169898054441	0.08069242523461798	0.2179	0.9043276407732795	0.07103437494786892	0.1804	0.8551338310819846	0.09553034255448935	-0.0119	0.7839165555639502	1.216046601966543	0.0008	0.8062996329438243	1.468603038477219	0.0655	0.7860546116171655	1.3173971198273249	0.1076	0.5948603242273204	1.1798061432293596	-0.01275	0.3847971169791145	1.0563609992162115	0.0702	0.538179507881722	0.8744673630940343	0.1076	0.9464230576442609	1.1414048158952863	-0.01275	1.1015216111900357	1.0158934959756944	0.0702	0.962165632391923	0.8801281858175358	0.1076
457	15.262912621359224	0.7409964250529364	0.7828746963837101	0.0301	0.6426900281713377	0.7716039217641636	0.0301	0.6706844458570698	0.4391395067390352	0.129	0.7225461469005832	0.13615147821152446	0.023	0.7032895371423337	0.03187631046343412	0.2179	0.6695170878565716	0.034758418860605614	0.1804	0.7504227744944517	0.09378597990970576	-0.0119	0.8420599364282155	0.8011327112865858	0.0301	0.8464383237313564	0.5602497804007142	0.129	0.8621546380892944	0.15826173150385478	0.023	0.8515877048027118	0.08054325966636224	0.2179	0.9016997529070434	0.07242603359299643	0.1804	0.8568555061471835	0.09671258483147536	-0.0119	0.7789448489155594	1.2089506526787908	0.0008	0.7976287740006555	1.4606395473363976	0.0655	0.781400758558689	1.307080290858317	0.1076	0.5931914024872376	1.172453637397442	-0.01275	0.38470699493996235	1.0506181812120625	0.0702	0.5397526202523555	0.8709768730665182	0.1076	0.9417700160462189	1.1374052368740843	-0.01275	1.1032629251998	1.0123328785658177	0.0702	0.9636226863561326	0.8779979368316585	0.1076
